<?xml version="1.0" encoding="utf-8"?>
<!-- Generator: Adobe Illustrator 19.0.0, SVG Export Plug-In . SVG Version: 6.00 Build 0)  -->
<svg version="1.1" id="圖層_1" xmlns="http://www.w3.org/2000/svg" xmlns:xlink="http://www.w3.org/1999/xlink" x="0px" y="0px"
	 viewBox="0 0 149.9 36.6" style="enable-background:new 0 0 149.9 36.6;" xml:space="preserve">
<style type="text/css">
	.st0{fill:#666666;}
</style>
<g id="XMLID_28_">
	<path id="XMLID_29_" d="M13.5,2c0.8,1.7,1.4,3.1,1.7,4.1c0.3,1,0.5,2,0.8,3.1c0.2,1.1,0.4,2.2,0.6,3.3c0.1,1.1,0.3,2.3,0.3,3.7
		l-3.8,0l-3.2-2.5l-2,2.5l-3.4,0c-0.1-1.3-0.3-2.5-0.5-3.7c-0.2-1.2-0.3-2-0.4-2.5C3.5,9.4,3.3,8.7,3,7.7C2.8,6.7,2.5,5.8,2.3,5
		C2,4.3,1.7,3.2,1.2,2h3.6C5.5,3.6,6,5,6.4,6.2c0.4,1.2,0.8,2.9,1.1,4.9l1.6-2.9l3.4,3c-0.5-2.3-1-3.9-1.3-4.8
		C11,5.5,10.3,4,9.4,1.9L13.5,2l-0.1-0.1L13.5,2z"/>
	<path id="XMLID_31_" d="M19.7,16.1c-0.1-1.6-0.2-2.9-0.4-3.9s-0.4-2.1-0.6-3c-0.2-0.9-0.5-1.9-0.8-2.9c-0.3-1-0.8-2.4-1.4-4.3h3.6
		l6.5,0c0.7,1.3,1.1,2.3,1.2,3L21.3,5c0.3,0.9,0.6,1.7,0.8,2.3l6.6,0.1c0.2,0.8,0.5,1.8,0.6,2.9h-6.6c0.3,1.6,0.4,2.5,0.4,2.9
		l6.8,0.1c0.1,1,0.1,2,0.2,2.9L19.7,16.1L19.7,16.1z"/>
	<path id="XMLID_33_" d="M32.4,16.1c-0.2-2-0.3-3.4-0.4-4.2c-0.1-0.7-0.3-1.5-0.5-2.4c-0.2-0.9-0.5-1.7-0.7-2.6
		c-0.3-0.9-0.5-1.7-0.8-2.5C29.6,3.5,29.3,2.8,29,2L31.9,2c3.3,0,5.2,0.2,5.8,0.4c0.5,0.2,1,0.5,1.2,0.9s0.5,0.8,0.6,1.2
		c0.1,0.4,0.2,0.9,0.3,1.5c0.1,0.6-0.1,1.1-0.5,1.5c0.5,0.2,0.9,0.5,1.1,0.8c0.3,0.3,0.5,0.6,0.7,1c0.2,0.4,0.4,0.9,0.6,1.5
		c0.2,0.6,0.3,1.3,0.5,2c0.1,0.7,0.2,1.3,0.1,1.7s-0.3,0.7-0.6,1.1c-0.3,0.4-0.6,0.6-1,0.6c-0.4,0-1.4,0.1-3.1,0.1h-4.1h-1.1
		L32.4,16.1z M34,6.6c1.1,0,1.8,0,2-0.1c0.2-0.1,0.4-0.3,0.6-0.5c0.2-0.2,0.2-0.4,0.2-0.7c-0.1-0.3-0.2-0.5-0.3-0.6S36,4.5,35.7,4.4
		c-0.3,0-0.8-0.1-1.5-0.1c-0.7,0-1,0-1,0.1c0,0.1,0.1,0.3,0.3,0.7C33.7,5.6,33.9,6.1,34,6.6z M35.6,13.5c1,0,1.7,0,2.3-0.1
		c0.5,0,0.8-0.3,0.9-0.7c0-0.4,0-0.8-0.2-1.3c-0.1-0.5-0.3-0.8-0.5-1.1c-0.2-0.2-0.5-0.4-1-0.4s-1-0.1-1.5-0.1
		c-0.5,0-0.7,0.1-0.7,0.1c0,0.1,0.1,0.4,0.2,1C35.3,11.7,35.4,12.5,35.6,13.5z"/>
	<path id="XMLID_37_" d="M47.3,5.6L48.2,7l5.3,0c0.4,0.9,0.8,1.8,1.3,2.8c0.5,1,0.8,2,0.9,2.8l-5.3,0l0.5,1.7c-1.5-1.4-3-3-4.7-4.7
		L47.3,5.6z M56.7,7c0.5,0.9,0.9,1.8,1.3,2.7c0.4,0.9,0.7,1.9,0.9,2.9h-2.1c0-0.7-0.4-1.7-1-3.1c-0.7-1.4-1.1-2.2-1.2-2.5L56.7,7z
		 M59.7,12.6c-0.1-0.7-0.3-1.3-0.5-1.8c-0.2-0.6-0.8-1.8-1.8-3.8L59,7c0.5,0.9,0.8,1.5,0.9,1.8c0.1,0.3,0.3,0.8,0.7,1.7
		c0.4,0.8,0.5,1.6,0.6,2.2H59.7z M62.2,12.6c-0.1-0.7-0.3-1.3-0.5-1.8c-0.2-0.5-0.4-1-0.6-1.4S60.6,8.2,59.9,7h1
		c0.2,0.3,0.4,0.6,0.6,1c0.2,0.4,0.3,0.7,0.4,0.8C62,9,62.2,9.2,62.3,9.5c0.1,0.3,0.5,1.3,1,3.1L62.2,12.6z M64,12.5
		c-0.1-0.4-0.1-0.7-0.2-0.9c0-0.2-0.1-0.4-0.2-0.6c-0.1-0.2-0.2-0.6-0.4-1.1c-0.1-0.5-0.6-1.4-1.4-2.9l0.6,0c0.6,0.9,1,1.6,1.1,2.1
		s0.4,1,0.6,1.6c0.2,0.6,0.3,1.2,0.4,1.7L64,12.5z"/>
	<path id="XMLID_43_" class="st0" d="M14.8,21.3c-0.1,1.3-0.2,2.4-0.3,3.1h-3.9c-0.1,1.4-0.3,2.6-0.4,3.5c-0.2,0.9-0.4,1.8-0.6,2.7
		c-0.2,0.9-0.5,1.8-0.9,2.8c-0.3,1-0.6,1.6-0.7,2H4.1l1.3-4c0.9-3.1,1.3-5.4,1.3-7H2.8L3,22.3l0-1h0.6H14.8z"/>
	<path id="XMLID_45_" class="st0" d="M14.2,35.4l0.8-1.7c0.5-1.5,0.8-2.7,1-3.5s0.4-1.6,0.5-2.5c0.2-0.9,0.3-1.8,0.4-2.6
		c0.1-0.8,0.1-1.5,0.2-2.1s0-1.2,0-1.7l3.9,0.1c-0.1,1.7-0.2,3-0.3,3.9c-0.1,1-0.3,2.1-0.5,3.3c-0.3,1.2-0.5,2.3-0.9,3.3
		c-0.3,1-0.8,2.2-1.3,3.6H14.2z"/>
	<path id="XMLID_47_" class="st0" d="M20.8,35.3c0.8-1.7,1.4-3.1,1.7-4.1c0.3-1,0.6-2,0.9-3c0.3-1,0.5-2.1,0.7-3.2
		c0.2-1.1,0.3-2,0.3-2.8c0-0.7,0.1-1.1,0.1-1c2.3,0,3.8,0,4.3,0l1.9,3.4l3-3.4l3.9,0c0,1.3-0.1,2.5-0.3,3.7c-0.2,1.1-0.4,2-0.5,2.5
		c-0.1,0.5-0.3,1.3-0.6,2.3c-0.3,1-0.6,1.8-0.9,2.6s-0.8,1.8-1.4,3.1h-3.6c0.9-2.3,1.5-3.9,1.8-4.8s0.5-2.3,0.7-4l-3.5,3.2l-1.8-2.9
		c-0.4,1.8-0.8,3.2-1.1,4.1c-0.3,0.9-0.7,1.9-1.2,2.9c-0.5,1-0.7,1.6-0.8,1.6L20.8,35.3l0,0.1L20.8,35.3z"/>
	<path id="XMLID_49_" class="st0" d="M37.4,35.3c0.7-1.6,1.2-2.9,1.5-3.9c0.4-1.1,0.7-2.1,0.9-3s0.4-1.9,0.6-2.9
		c0.2-1,0.4-2.4,0.7-4.2H45l6.4,0c-0.1,1.3-0.2,2.2-0.4,2.9l-6.6-0.1c-0.1,0.9-0.3,1.7-0.4,2.3l6.6,0.1c-0.2,0.8-0.4,1.8-0.8,2.9
		h-6.6c-0.5,1.6-0.9,2.5-1,2.9l6.7,0.1c-0.4,1-0.8,2-1.3,2.9L37.4,35.3L37.4,35.3z"/>
	<path id="XMLID_51_" class="st0" d="M56,35.3c0.8-1.7,1.4-3.1,1.7-4.1c0.3-1,0.6-2,0.9-3c0.3-1,0.5-2.1,0.7-3.2
		c0.2-1.1,0.3-2,0.3-2.8c0-0.7,0.1-1.1,0.1-1c2.3,0,3.8,0,4.3,0l1.9,3.4l3-3.4l3.9,0c0,1.3-0.1,2.5-0.3,3.7c-0.2,1.1-0.4,2-0.5,2.5
		c-0.1,0.5-0.3,1.3-0.6,2.3c-0.3,1-0.6,1.8-0.9,2.6s-0.8,1.8-1.4,3.1h-3.6c0.9-2.3,1.5-3.9,1.8-4.8s0.5-2.3,0.7-4l-3.5,3.2l-1.8-2.9
		c-0.4,1.8-0.8,3.2-1.1,4.1c-0.3,0.9-0.7,1.9-1.2,2.9c-0.5,1-0.7,1.6-0.8,1.6L56,35.3l0,0.1L56,35.3z"/>
	<path id="XMLID_53_" class="st0" d="M86,21.2c0.1,0.6,0.2,1.2,0.2,1.8s0,1.4,0,2.4c-0.1,0.9-0.2,2-0.4,3c-0.2,1.1-0.5,2.1-0.7,3.1
		s-0.7,2.2-1.3,3.8h-3.5l0.9-2.6l0.3-1.2l-3.5-0.1l-0.6,1.9l-0.9,2h-3.6c0.5-1.3,0.9-2.4,1.2-3.3c0.3-0.9,0.5-1.8,0.8-2.6
		s0.4-1.8,0.5-2.7c0.1-0.9,0.3-1.8,0.4-2.7c0.2-0.9,0.5-1.6,1.2-2.1c0.6-0.5,1.1-0.8,1.6-0.8c0.4,0,1.2,0,2.4,0
		C82,21,83.7,21.1,86,21.2z M78.2,28.5l3.7,0.1c0.3-1.2,0.5-2,0.5-2.5c0-0.5,0.1-1.2,0.2-2.3c-1.8-0.1-2.8-0.1-3.1,0.2
		c-0.2,0.2-0.4,0.6-0.6,1.1C78.9,25.4,78.7,26.6,78.2,28.5L78.2,28.5z"/>
	<path id="XMLID_56_" class="st0" d="M88.9,35.4c-0.6,0-1.1-0.2-1.4-0.5s-0.5-0.7-0.5-1c0-0.4,0.1-0.9,0.4-1.8
		c0.2-0.8,0.4-1.8,0.7-2.9c0.2-1.1,0.4-2.1,0.5-2.9c0.1-0.8,0.2-1.4,0.3-1.9c0.1-0.5,0.2-1,0.3-1.4c0.1-0.5,0.4-0.9,0.8-1.2
		c0.4-0.4,0.9-0.6,1.6-0.6c0.6,0,1.6,0,2.9,0c1.3,0,2.9,0.1,4.8,0.1l-0.1,2.1l-0.1,0.5L99,24.2l-2.6-0.1c-2,0-3.1,0-3.2,0.1
		c-0.1,0.1-0.3,0.2-0.4,0.4s-0.2,0.5-0.3,1s-0.2,1.1-0.4,1.9s-0.3,1.4-0.4,1.9c-0.1,0.5-0.2,0.9-0.2,1.2c0,0.2,0,0.4,0,0.5
		c0,0.1,0.1,0.3,0.3,0.5c0.2,0.2,0.7,0.3,1.7,0.3h4.1l-0.3,1.1l-0.7,2.2h-7.5H88.9z"/>
	<path id="XMLID_58_" class="st0" d="M98.5,35.3c0.7-1.7,1.2-3,1.5-3.8c0.3-0.8,0.5-1.7,0.8-2.6c0.2-0.9,0.4-1.8,0.5-2.7
		c0.1-0.9,0.2-1.7,0.3-2.4s0.2-1.6,0.3-2.7h2.6l1.5,0c-0.1,1.3-0.2,2.3-0.3,2.9s-0.2,1.5-0.4,2.5l3.3,0.1c0.2-1.3,0.4-2.4,0.5-3.3
		s0.1-1.6,0.1-2.1l4,0l-0.2,2.1c-0.2,1.6-0.3,2.9-0.5,3.9c-0.2,1-0.4,1.9-0.6,2.8c-0.2,0.9-0.5,1.7-0.8,2.5
		c-0.3,0.8-0.7,1.8-1.2,2.9h-3.8c0.6-1.5,1-2.7,1.2-3.4c0.2-0.7,0.5-1.5,0.7-2.4l-3.3-0.1c-0.2,0.8-0.5,1.5-0.7,2.2
		c-0.3,0.7-0.8,1.9-1.5,3.6H98.5L98.5,35.3z M107.3,32C107.1,32.7,107.1,32.7,107.3,32C107.6,31.3,107.6,31.3,107.3,32z M111.9,30
		C112.1,29,112.1,29,111.9,30C111.7,30.9,111.7,30.9,111.9,30z"/>
	<path id="XMLID_62_" class="st0" d="M112.9,35.4l0.8-1.7c0.5-1.5,0.8-2.7,1-3.5s0.4-1.6,0.5-2.5c0.2-0.9,0.3-1.8,0.4-2.6
		c0.1-0.8,0.1-1.5,0.2-2.1s0-1.2,0-1.7l3.9,0.1c-0.1,1.7-0.2,3-0.3,3.9s-0.3,2.1-0.5,3.3c-0.3,1.2-0.5,2.3-0.9,3.3
		c-0.3,1-0.8,2.2-1.3,3.6H112.9z"/>
	<path id="XMLID_64_" class="st0" d="M119.6,35.3c0.8-1.8,1.4-3.2,1.8-4.4c0.4-1.1,0.7-2.3,0.9-3.4c0.2-1.1,0.4-2.2,0.6-3.1
		c0.2-0.9,0.3-1.7,0.3-2.3s0.1-0.9,0.1-0.9h3.1l3,7.7c0.5-2.2,0.8-3.9,0.9-4.9c0.1-1,0.2-2,0.2-2.8h3.9c-0.3,3.2-0.8,5.8-1.3,7.8
		c-0.6,2-0.9,3.2-1.1,3.7c-0.2,0.5-0.6,1.4-1.1,2.7l-3,0l-2.5-5.7c-0.6,2-1.1,3.3-1.2,3.8c-0.2,0.5-0.5,1.1-0.9,2L119.6,35.3
		L119.6,35.3z"/>
	<path id="XMLID_66_" class="st0" d="M134.4,35.3c0.7-1.6,1.2-2.9,1.5-3.9s0.7-2.1,0.9-3s0.4-1.9,0.6-2.9c0.2-1,0.4-2.4,0.7-4.2h3.8
		l6.4,0c-0.1,1.3-0.2,2.2-0.4,2.9l-6.6-0.1c-0.1,0.9-0.3,1.7-0.4,2.3l6.6,0.1c-0.2,0.8-0.4,1.8-0.8,2.9h-6.6c-0.5,1.6-0.9,2.5-1,2.9
		l6.7,0.1c-0.4,1-0.8,2-1.3,2.9L134.4,35.3L134.4,35.3z"/>
</g>
</svg>
